<?xml version="1.0" encoding="UTF-8"?>
<svg id="_레이어_2" data-name="레이어 2" xmlns="http://www.w3.org/2000/svg" viewBox="0 0 64.72 30.52">
  <defs>
    <style>
      .cls-1 {
        fill: #afafaf;
        stroke-width: 0px;
      }
    </style>
  </defs>
  <g id="logo--gray">
    <path class="cls-1" d="m0,.62h30.68v17.46H1.4V6.54H0V.62Zm19.8,29.9h-7.51v-4.05H.7v-6.65h30.68v6.65h-11.58v4.05ZM8.95,12.16h14.18v-5.61h-14.18v5.61Z"/>
    <path class="cls-1" d="m63.03,20.68c-1.12-.87-2.6-1.32-4.42-1.32h-18.11c-1.83,0-3.3.45-4.42,1.32-1.12.9-1.68,2.32-1.68,4.26,0,1.04.14,1.91.42,2.63.28.69.67,1.28,1.23,1.73.49.42,1.12.73,1.9.94.74.17,1.58.28,2.49.28h18.18c.91,0,1.72-.1,2.49-.28.74-.21,1.37-.52,1.93-.94.53-.45.95-1.04,1.26-1.73.28-.73.42-1.59.42-2.63,0-1.94-.56-3.36-1.68-4.26Zm-5.83,5.13c-.49.1-1.37.14-2.63.14h-10.04c-1.3,0-2.18-.03-2.6-.14-.49-.07-.7-.38-.7-.87,0-.24.03-.45.14-.59.07-.14.25-.24.53-.31.21-.03.56-.07,1.02-.1h13.3c.42.03.74.07,1.02.1.21.07.39.17.49.31.07.14.14.35.14.59,0,.48-.25.8-.67.87Z"/>
    <path class="cls-1" d="m46.4.62v4.68h-4.11V.62h-7.55v17.43h19.2V.62h-7.55Zm0,12.85h-4.11v-3.64h4.11v3.64Z"/>
    <rect class="cls-1" x="56.59" y="7.96" width="7.55" height="10.09"/>
    <ellipse class="cls-1" cx="60.37" cy="3.54" rx="3.5" ry="3.54"/>
  </g>
</svg>